<?xml version="1.0" encoding="utf-8"?>
<!-- Generator: Adobe Illustrator 23.0.2, SVG Export Plug-In . SVG Version: 6.00 Build 0)  -->
<svg version="1.1" id="Layer_1" xmlns="http://www.w3.org/2000/svg" xmlns:xlink="http://www.w3.org/1999/xlink" x="0px" y="0px"
	 viewBox="0 0 475.6 475.6" style="enable-background:new 0 0 475.6 475.6;" xml:space="preserve">
<style type="text/css">
	.st0{fill:#B5B5B5;}
	.st1{fill:#FFFFFF;}
</style>
<circle class="st0" cx="237.8" cy="237.8" r="237.8"/>
<path class="st1" d="M328.8,185.9c0-43.8-35.5-79.3-79.3-79.3c-28.3,0-53.1,14.8-67.2,37.2c-8.8-4.5-18.7-7-29.3-7
	c-32.4,0-59.2,23.7-64.1,54.7c-4.4-1.5-9.1-2.3-14.1-2.3c-24.4,0-44.1,19.7-44.1,44.1c0,23.3,18.1,42.4,41.1,44
	c2.6,0.8,5.4,1.3,8.2,1.3h220.4c15.1,0,27.4-12.6,27.4-28.2V198C328.5,194.1,328.8,190,328.8,185.9z"/>
<path class="st0" d="M404.8,253.6c-4.2,0-8.3,0.7-12.1,2c-4.2-26.7-27.4-47.2-55.3-47.2c-9.1,0-17.7,2.2-25.3,6
	c-12.1-19.2-33.5-32-57.9-32c-31.4,0-57.8,21.1-65.8,49.9c-23.1,4.4-40.5,24.6-40.5,49c0,27.6,22.3,49.9,49.9,49.9
	c3.1,0,6.1-0.3,9-0.8c1.1,0.2,2.3,0.3,3.5,0.3h190.1c2.5,0,4.9-0.4,7.1-1.1c19.8-1.3,35.4-17.8,35.4-37.9
	C442.9,270.7,425.9,253.6,404.8,253.6z"/>
<path class="st1" d="M403,262.5c-4.1,0-8.1,0.7-11.8,2c-4.1-25.9-26.6-45.8-53.6-45.8c-8.8,0-17.1,2.1-24.5,5.9
	c-11.7-18.7-32.5-31.1-56.2-31.1c-30.4,0-56,20.5-63.9,48.5c-22.4,4.3-39.3,23.9-39.3,47.5c0,26.7,21.7,48.4,48.4,48.4
	c3,0,5.9-0.3,8.7-0.8c1.1,0.2,2.2,0.3,3.4,0.3h184.5c2.4,0,4.7-0.4,6.9-1.1c19.2-1.3,34.4-17.2,34.4-36.8
	C439.9,279,423.4,262.5,403,262.5z"/>
</svg>
