<?xml version="1.0" encoding="utf-8"?>
<!-- Generator: Adobe Illustrator 23.0.2, SVG Export Plug-In . SVG Version: 6.00 Build 0)  -->
<svg version="1.1" id="Layer_1" xmlns="http://www.w3.org/2000/svg" xmlns:xlink="http://www.w3.org/1999/xlink" x="0px" y="0px"
	 viewBox="0 0 473.9 473.9" style="enable-background:new 0 0 473.9 473.9;" xml:space="preserve">
<style type="text/css">
	.st0{fill:#344E5D;}
	.st1{fill:#FFFFFF;}
	.st2{fill:#4C6CB1;}
</style>
<circle class="st0" cx="237" cy="237" r="237"/>
<g>
	<path class="st1" d="M392.7,172.8c0.2-1.8,1.4-3.3,1.4-5.2c0-28.2-30.5-51.1-68.2-51.1c-4.9,0-9.3,1.4-14,2.1
		c-11.3-15-31.9-25.5-56.5-25.5c-31.9,0-57.2,17.3-63.2,40c-30.9,6.1-54.2,26.3-54.2,51.5c0,23.8,20.8,43.4,49.3,50.7
		c9.6,21.7,36.1,37.6,68.2,37.6c29.1,0,53.8-13,65.5-31.6c7.5,2.5,15.7,4,24.4,4c33.4,0,60.5-20.3,60.5-45.4
		C405.9,189.5,400.5,180.4,392.7,172.8z"/>
	<path class="st1" d="M213,178.3c0.1-1.1,0.9-2,0.9-3.1c0-17.1-18.5-31-41.4-31c-3,0-5.7,0.8-8.5,1.3c-6.9-9.1-19.4-15.5-34.3-15.5
		c-19.4,0-34.8,10.5-38.4,24.3c-18.8,3.7-33,16-33,31.3c0,14.5,12.6,26.4,29.9,30.8c5.9,13.2,21.9,22.8,41.4,22.8
		c17.7,0,32.7-7.9,39.8-19.2c4.6,1.5,9.5,2.4,14.8,2.4c20.3,0,36.7-12.3,36.7-27.6C221,188.4,217.7,182.9,213,178.3z"/>
	<path class="st1" d="M287,232.8c-0.1,0.9-0.7,1.7-0.7,2.6c0,14.3,15.4,25.8,34.4,25.8c2.5,0,4.7-0.7,7-1.1
		c5.7,7.6,16.1,12.9,28.5,12.9c16.1,0,28.9-8.8,31.9-20.2c15.6-3.1,27.4-13.3,27.4-26c0-12-10.5-21.9-24.9-25.6
		c-4.9-11-18.2-19-34.4-19c-14.7,0-27.2,6.6-33.1,15.9c-3.8-1.3-7.9-2-12.3-2c-16.9,0-30.5,10.3-30.5,22.9
		C280.3,224.3,283.1,228.9,287,232.8z"/>
	<path class="st2" d="M149.6,266.3c0,0-26.9,10.1-29.3,12.6c-4.6,4.6-4.6,12.1,0,16.8c4.6,4.6,12.1,4.6,16.8,0
		C139.4,293.2,149.6,266.3,149.6,266.3z"/>
	<path class="st2" d="M214.7,291.7c0,0-26.9,10.1-29.3,12.6c-4.6,4.6-4.6,12.1,0,16.8c4.6,4.6,12.1,4.6,16.8,0
		C204.6,318.6,214.7,291.7,214.7,291.7z"/>
	<path class="st2" d="M299.2,296.3c0,0-26.9,10.1-29.3,12.6c-4.6,4.6-4.6,12.1,0,16.8c4.6,4.6,12.1,4.6,16.8,0
		C289.1,323.1,299.2,296.3,299.2,296.3z"/>
	<path class="st2" d="M147.7,331.2c0,0-26.9,10.1-29.3,12.6c-4.6,4.6-4.6,12.1,0,16.8c4.6,4.6,12.1,4.6,16.8,0
		C137.6,358.1,147.7,331.2,147.7,331.2z"/>
	<path class="st2" d="M231.9,348c0,0-26.9,10.1-29.3,12.6c-4.6,4.6-4.6,12.1,0,16.8c4.6,4.6,12.1,4.6,16.8,0
		C221.8,374.9,231.9,348,231.9,348z"/>
	<path class="st2" d="M314.2,346.1c0,0-26.9,10.1-29.3,12.6c-4.6,4.6-4.6,12.1,0,16.8c4.6,4.6,12.1,4.6,16.8,0
		C304.1,373,314.2,346.1,314.2,346.1z"/>
	<path class="st2" d="M376.6,293.1c0,0-26.9,10.1-29.3,12.6c-4.6,4.6-4.6,12.1,0,16.8c4.6,4.6,12.1,4.6,16.8,0
		C366.4,319.9,376.6,293.1,376.6,293.1z"/>
</g>
</svg>
